{
  "title": "Rick and Morty Season 2[BDRip 1080p AC3][AtaraxiaPrime]",
  "uid": 15177446,
  "size": 4955735608,
  "categoryP": "video",
  "categoryS": "hd___tv_shows",
  "magnet": "?xt=urn:btih:668c251eab6a3155fbe7a7ef52bd062787c49320&amp;dn=Rick+and+Morty+Season+2%5BBDRip+1080p+AC3%5D%5BAtaraxiaPrime%5D&amp;tr=udp%3A%2F%2Ftracker.leechers-paradise.org%3A6969&amp;tr=udp%3A%2F%2Fzer0day.ch%3A1337&amp;tr=udp%3A%2F%2Fopen.demonii.com%3A1337&amp;tr=udp%3A%2F%2Ftracker.coppersurfer.tk%3A6969&amp;tr=udp%3A%2F%2Fexodus.desync.com%3A6969",
  "seeders": 39,
  "leechers": 12,
  "uploader": "AtaraxiaPrime",
  "files": 12,
  "time": 1467429270,
  "description": "RICK AND MORTY: SEASON TWO (BLU-RAY)\r\n----------------------------------------\r\n\r\nRick Sanchez is still living with his daughter Beth's family and causing more trouble than ever. This season the rest of the family are dragged into Rick's intergalactic adventures, as he faces new threats and mysteries of his secret past are revealed. Can the family survive Rick's insanity and all the chaos the universe throws at them?\r\n\r\nEPISODE LIST\r\n----------------------------------------\r\n\r\nE01\tRickle in Time\t2015-07-26\r\nE02\tMortynight Run\t2015-08-02\r\nE03\tAuto Erotic Assimilation\t2015-08-09\r\nE04\tTotal Rickall\t2015-08-16\r\nE05\tGet Schwifty\t2015-08-23\r\nE06\tThe Ricks Must Be Crazy\t2015-08-30\r\nE07\tBig Trouble in Little Sanchez\t2015-09-13\r\nE08\tInterdimensional Cable 2: Tempting Fate\t2015-09-20\r\nE09\tLook Who's Purging Now\t2015-09-27\r\nE10\tThe Wedding Squanchers\t2015-10-04\t\r\n\r\nMEDIA INFO\r\n----------------------------------------\r\n\r\nGeneral\r\nComplete name : Season 2E04.Total Rickall.mkv\r\nFormat : Matroska\r\nFormat version : Version 2\r\nFile size : 458 MiB\r\nDuration : 21mn 56s\r\nOverall bit rate : 2 920 Kbps\r\nEncoded date : UTC 2016-06-28T01:20:19Z\r\nWriting application : HandBrake 0.10.5 2016021100\r\nWriting library : Lavf55.12.0 / Lavf55.12.0\r\n\r\nVideo\r\nID : 1\r\nFormat : AVC\r\nFormat/Info : Advanced Video Codec\r\nFormat profile :   \r\nFormat settings, CABAC : Yes\r\nFormat settings, ReFrames : 16 frames\r\nCodec ID : V_MPEG4/ISO/AVC\r\nDuration : 21mn 56s\r\nBit rate : 2 414 Kbps\r\nWidth : 1 920 pixels\r\nHeight : 1 080 pixels\r\nDisplay aspect ratio : 16:9\r\nFrame rate mode : Constant\r\nFrame rate : 23.976 (24000/1001) fps\r\nColor space : YUV\r\nChroma subsampling : 4:2:0\r\nBit depth : 8 bits\r\nScan type : Progressive\r\nBits/(Pixel*Frame) : 0.049\r\nStream size : 379 MiB (83%)\r\nWriting library : x264 core 142 r2479 dd79a61\r\nEncoding settings : cabac=1 / ref=16 / deblock=1:1:1 / analyse=0x3:0x133 / me=umh / subme=10 / psy=1 / psy_rd=0.40:0.00 / mixed_ref=1 / me_range=24 / chroma_me=1 / trellis=2 / 8x8dct=1 / cqm=0 / deadzone=21,11 / fast_pskip=1 / chroma_qp_offset=-2 / threads=12 / lookahead_threads=3 / sliced_threads=0 / nr=0 / decimate=1 / interlaced=0 / bluray_compat=0 / constrained_intra=0 / bframes=10 / b_pyramid=2 / b_adapt=2 / b_bias=0 / direct=3 / weightb=1 / open_gop=0 / weightp=2 / keyint=240 / keyint_min=24 / scenecut=40 / intra_refresh=0 / rc_lookahead=60 / rc=crf / mbtree=1 / crf=20.0 / qcomp=0.60 / qpmin=0 / qpmax=69 / qpstep=4 / vbv_maxrate=300000 / vbv_bufsize=300000 / crf_max=0.0 / nal_hrd=none / filler=0 / ip_ratio=1.40 / aq=1:0.60\r\nDefault : Yes\r\nForced : No\r\nColor range : Limited\r\nColor primaries : BT.709\r\nTransfer characteristics : BT.709\r\nMatrix coefficients : BT.709\r\n\r\nAudio\r\nID : 2\r\nFormat : AC-3\r\nFormat/Info : Audio Coding 3\r\nMode extension : CM (complete main)\r\nFormat settings, Endianness : Big\r\nCodec ID : A_AC3\r\nDuration : 21mn 56s\r\nBit rate mode : Constant\r\nBit rate : 448 Kbps\r\nChannel(s) : 6 channels\r\nChannel positions : Front: L C R, Side: L R, LFE\r\nSampling rate : 48.0 KHz\r\nFrame rate : 31.250 fps (1536 spf)\r\nCompression mode : Lossy\r\nStream size : 70.3 MiB (15%)\r\nTitle : Surround\r\nLanguage : English\r\nDefault : Yes\r\nForced : No\r\n\r\nText\r\nID : 3\r\nFormat : PGS\r\nCodec ID : S_HDMV/PGS\r\nCodec ID/Info : Picture based subtitle format used on BDs/HD-DVDs\r\nLanguage : English\r\nDefault : No\r\nForced : No\r\n\r\nSCREENSHOTS\r\n----------------------------------------\r\n \nhttps://www.anony.ws/i/2016/07/02/0010a720.png \nhttps://www.anony.ws/i/2016/07/02/0027b11b.png \nhttps://www.anony.ws/i/2016/07/02/003615f7.png \nhttps://www.anony.ws/i/2016/07/02/00482d1d.png \nhttps://www.anony.ws/i/2016/07/02/005ab1c3.png \nhttps://www.anony.ws/i/2016/07/02/006095f2.png\r\n\r\n----------------------------------------\r\n\r\nAtaraxiaPrime",
  "parsed": {
    "xt": "urn:btih:668c251eab6a3155fbe7a7ef52bd062787c49320",
    "dn": "Rick and Morty Season 2[BDRip 1080p AC3][AtaraxiaPrime]",
    "tr": [
      "udp://exodus.desync.com:6969",
      "udp://open.demonii.com:1337",
      "udp://tracker.coppersurfer.tk:6969",
      "udp://tracker.leechers-paradise.org:6969",
      "udp://zer0day.ch:1337"
    ],
    "infoHash": "668c251eab6a3155fbe7a7ef52bd062787c49320",
    "infoHashBuffer": {
      "type": "Buffer",
      "data": [
        102,
        140,
        37,
        30,
        171,
        106,
        49,
        85,
        251,
        231,
        167,
        239,
        82,
        189,
        6,
        39,
        135,
        196,
        147,
        32
      ]
    },
    "name": "Rick and Morty Season 2[BDRip 1080p AC3][AtaraxiaPrime]",
    "announce": [
      "udp://exodus.desync.com:6969",
      "udp://open.demonii.com:1337",
      "udp://tracker.coppersurfer.tk:6969",
      "udp://tracker.leechers-paradise.org:6969",
      "udp://zer0day.ch:1337"
    ],
    "urlList": []
  },
  "previous": 51,
  "peers": 100,
  "last_updated": "2016-12-25T03:19:00.158Z"
}